<svg xmlns="http://www.w3.org/2000/svg" xmlns:xlink="http://www.w3.org/1999/xlink" version="1.1" x="0px" y="0px" viewBox="0 0 100 125" enable-background="new 0 0 100 100" xml:space="preserve" style="&#10;    fill: #fff;&#10;"><path d="M50,30c-1.381,0-2.5,1.119-2.5,2.5V45c0,1.381,1.119,2.5,2.5,2.5s2.5-1.119,2.5-2.5V32.5C52.5,31.119,51.381,30,50,30z"/><path d="M52.5,20.099V7.5C52.5,6.119,51.381,5,50,5s-2.5,1.119-2.5,2.5v12.599c-12.406,0.983-20,9.377-20,22.401v25.007  C27.503,81.021,35.918,95,50,95c14.084,0,22.5-13.982,22.5-27.5v-25C72.5,29.476,64.906,21.082,52.5,20.099z M67.5,67.5  C67.5,78.56,60.954,90,50,90S32.5,78.56,32.5,67.5v-25C32.5,31.378,38.878,25,50,25c11.121,0,17.5,6.378,17.5,17.5V67.5z"/></svg>