<svg xmlns="http://www.w3.org/2000/svg" xmlns:xlink="http://www.w3.org/1999/xlink" version="1.1" x="0px" y="0px" viewBox="0 0 100 125" enable-background="new 0 0 100 100" xml:space="preserve" style="&#10;    fill: #fff;&#10;"><g><path d="M58.2,47.9H41.8c-3,0-5.4-2.4-5.4-5.4V26.1c0-3,2.4-5.4,5.4-5.4h16.4c3,0,5.4,2.4,5.4,5.4v16.4   C63.6,45.5,61.2,47.9,58.2,47.9z M41.8,24.3c-1,0-1.8,0.8-1.8,1.8v16.4c0,1,0.8,1.8,1.8,1.8h16.4c1,0,1.8-0.8,1.8-1.8V26.1   c0-1-0.8-1.8-1.8-1.8H41.8z"/><path d="M55.2,33.7c0.1,0,0.2-0.1,0.1-0.2l-4.6-5.8c-0.4-0.4-0.9-0.4-1.3,0l-4.6,5.8c-0.1,0.1,0,0.2,0.1,0.2h2.9v6.5   c0,0.2,0.2,0.4,0.4,0.4h3.8c0.2,0,0.4-0.2,0.4-0.4v-6.5H55.2z"/></g><path d="M58.2,79.3H41.8c-3,0-5.4-2.4-5.4-5.4V57.5c0-3,2.4-5.4,5.4-5.4h16.4c3,0,5.4,2.4,5.4,5.4v16.4  C63.6,76.9,61.2,79.3,58.2,79.3z M41.8,55.8c-1,0-1.8,0.8-1.8,1.8v16.4c0,1,0.8,1.8,1.8,1.8h16.4c1,0,1.8-0.8,1.8-1.8V57.5  c0-1-0.8-1.8-1.8-1.8H41.8z"/><path d="M44.8,65.7c-0.1,0-0.2,0.1-0.1,0.2l4.6,5.8c0.4,0.4,0.9,0.4,1.3,0l4.6-5.8c0.1-0.1,0-0.2-0.1-0.2h-2.9v-6.5  c0-0.2-0.2-0.4-0.4-0.4h-3.8c-0.2,0-0.4,0.2-0.4,0.4v6.5H44.8z"/></svg>